<svg xmlns="http://www.w3.org/2000/svg" viewBox="0 0 100 100" width="100" height="100">
  <!-- Duck body -->
  <path d="M25 55
           C25 40, 35 30, 50 30
           C55 30, 58 32, 60 35
           C62 32, 65 30, 70 30
           C78 30, 82 36, 82 42
           C82 48, 78 52, 72 54
           L72 55
           C75 60, 72 72, 60 78
           C50 83, 35 80, 28 72
           C22 65, 20 58, 25 55Z" fill="#111111"/>
  <!-- Wing highlight -->
  <path d="M32 58
           C35 55, 45 52, 55 55
           C58 56, 60 58, 58 62
           C55 68, 48 72, 40 70
           C33 68, 30 62, 32 58Z" fill="white"/>
  <!-- Beak -->
  <path d="M70 38
           C75 38, 88 40, 92 43
           C94 45, 92 48, 88 48
           C82 48, 75 46, 70 44Z" fill="#F5A623"/>
  <!-- Eye -->
  <circle cx="62" cy="38" r="4" fill="white"/>
  <circle cx="62" cy="38" r="1.5" fill="#111111"/>
</svg>
